<svg xmlns="http://www.w3.org/2000/svg" viewBox="0 0 160 260" fill="none">
  <defs>
    <linearGradient id="body" x1="0" y1="0" x2="1" y2="0">
      <stop offset="0%" stop-color="#5B2C8D"/>
      <stop offset="40%" stop-color="#8E44AD"/>
      <stop offset="100%" stop-color="#4A235A"/>
    </linearGradient>
    <linearGradient id="shine" x1="0" y1="0" x2="1" y2="0">
      <stop offset="0%" stop-color="white" stop-opacity="0.3"/>
      <stop offset="100%" stop-color="white" stop-opacity="0"/>
    </linearGradient>
  </defs>
  <rect x="60" y="8" width="40" height="14" rx="4" fill="#4A235A"/>
  <rect x="64" y="20" width="32" height="18" rx="3" fill="#5B2C8D"/>
  <path d="M40 50 Q40 38 52 38 L108 38 Q120 38 120 50 L120 228 Q120 238 110 238 L50 238 Q40 238 40 228 Z" fill="url(#body)"/>
  <path d="M40 50 Q40 38 52 38 L66 38 L66 238 L50 238 Q40 238 40 228 Z" fill="url(#shine)"/>
  <rect x="46" y="70" width="68" height="120" rx="5" fill="white"/>
  <rect x="46" y="70" width="68" height="24" rx="5" fill="#8E44AD"/>
  <text x="80" y="86" text-anchor="middle" font-family="Arial,sans-serif" font-size="8" font-weight="800" fill="white">MS-ALBEN</text>
  <text x="80" y="112" text-anchor="middle" font-family="Arial,sans-serif" font-size="18" font-weight="800" fill="#5B2C8D">10%</text>
  <line x1="52" y1="120" x2="108" y2="120" stroke="#8E44AD" stroke-width="0.8" opacity="0.4"/>
  <text x="80" y="136" text-anchor="middle" font-family="Arial,sans-serif" font-size="7" fill="#555">Albendazol 10%</text>
  <text x="80" y="150" text-anchor="middle" font-family="Arial,sans-serif" font-size="7" fill="#777">Og'iz orqali suspenziya</text>
  <text x="80" y="164" text-anchor="middle" font-family="Arial,sans-serif" font-size="7" fill="#888">1 L</text>
  <rect x="46" y="176" width="68" height="14" rx="0" fill="#F5EEF8"/>
  <text x="80" y="186" text-anchor="middle" font-family="Arial,sans-serif" font-size="6" fill="#5B2C8D" font-weight="600">ANTIPARAZITAR</text>
</svg>
